<mxfile host="app.diagrams.net" modified="2022-09-28T13:58:19.424Z" agent="5.0 (Windows)" etag="4l6WDnbWdsfr6sc2BHi1" version="20.3.7" type="github">
  <diagram id="Tg6tOUuKNI6leu7Z2zXx" name="Página-1">
    <mxGraphModel dx="2664" dy="2169" grid="1" gridSize="10" guides="1" tooltips="1" connect="1" arrows="1" fold="1" page="1" pageScale="1" pageWidth="827" pageHeight="1169" math="0" shadow="0">
      <root>
        <mxCell id="0" />
        <mxCell id="1" parent="0" />
        <mxCell id="uRZREWmKz6NbIPccPwOi-40" value="A" style="swimlane;childLayout=stackLayout;resizeParent=1;resizeParentMax=0;startSize=20;horizontal=0;horizontalStack=1;fillColor=#FFFFFF;" vertex="1" parent="1">
          <mxGeometry x="-50" y="-200" width="2330" height="1060" as="geometry" />
        </mxCell>
        <mxCell id="uRZREWmKz6NbIPccPwOi-41" value="Cadastro de paciente " style="swimlane;startSize=20;fillColor=#FFFFFF;" vertex="1" parent="uRZREWmKz6NbIPccPwOi-40">
          <mxGeometry x="20" width="720" height="1060" as="geometry" />
        </mxCell>
        <mxCell id="uRZREWmKz6NbIPccPwOi-5" value="" style="ellipse;html=1;shape=startState;fillColor=#000000;strokeColor=#ff0000;" vertex="1" parent="uRZREWmKz6NbIPccPwOi-41">
          <mxGeometry y="200" width="30" height="30" as="geometry" />
        </mxCell>
        <mxCell id="uRZREWmKz6NbIPccPwOi-87" value="" style="edgeStyle=orthogonalEdgeStyle;rounded=0;orthogonalLoop=1;jettySize=auto;html=1;" edge="1" parent="uRZREWmKz6NbIPccPwOi-41" source="uRZREWmKz6NbIPccPwOi-7" target="uRZREWmKz6NbIPccPwOi-86">
          <mxGeometry relative="1" as="geometry" />
        </mxCell>
        <mxCell id="uRZREWmKz6NbIPccPwOi-7" value="Verifica se cliente possui cadastro" style="whiteSpace=wrap;html=1;fillColor=#FFFFFF;strokeColor=#ff0000;" vertex="1" parent="uRZREWmKz6NbIPccPwOi-41">
          <mxGeometry x="60" y="185" width="120" height="60" as="geometry" />
        </mxCell>
        <mxCell id="uRZREWmKz6NbIPccPwOi-8" value="" style="edgeStyle=orthogonalEdgeStyle;rounded=0;orthogonalLoop=1;jettySize=auto;html=1;" edge="1" parent="uRZREWmKz6NbIPccPwOi-41" source="uRZREWmKz6NbIPccPwOi-5" target="uRZREWmKz6NbIPccPwOi-7">
          <mxGeometry relative="1" as="geometry" />
        </mxCell>
        <mxCell id="uRZREWmKz6NbIPccPwOi-79" value="Cadastra dados do paciente" style="whiteSpace=wrap;html=1;fillColor=#FFFFFF;strokeColor=#ff0000;" vertex="1" parent="uRZREWmKz6NbIPccPwOi-41">
          <mxGeometry x="450" y="185" width="120" height="60" as="geometry" />
        </mxCell>
        <mxCell id="uRZREWmKz6NbIPccPwOi-83" value="" style="edgeStyle=orthogonalEdgeStyle;rounded=0;orthogonalLoop=1;jettySize=auto;html=1;" edge="1" parent="uRZREWmKz6NbIPccPwOi-41" source="uRZREWmKz6NbIPccPwOi-80" target="uRZREWmKz6NbIPccPwOi-82">
          <mxGeometry relative="1" as="geometry" />
        </mxCell>
        <mxCell id="uRZREWmKz6NbIPccPwOi-85" value="" style="edgeStyle=orthogonalEdgeStyle;rounded=0;orthogonalLoop=1;jettySize=auto;html=1;" edge="1" parent="uRZREWmKz6NbIPccPwOi-41" source="uRZREWmKz6NbIPccPwOi-80" target="uRZREWmKz6NbIPccPwOi-84">
          <mxGeometry relative="1" as="geometry" />
        </mxCell>
        <mxCell id="uRZREWmKz6NbIPccPwOi-99" value="" style="edgeStyle=orthogonalEdgeStyle;rounded=0;orthogonalLoop=1;jettySize=auto;html=1;" edge="1" parent="uRZREWmKz6NbIPccPwOi-41" source="uRZREWmKz6NbIPccPwOi-80" target="uRZREWmKz6NbIPccPwOi-98">
          <mxGeometry relative="1" as="geometry" />
        </mxCell>
        <mxCell id="uRZREWmKz6NbIPccPwOi-80" value="" style="rhombus;whiteSpace=wrap;html=1;fillColor=#FFFFFF;strokeColor=#ff0000;" vertex="1" parent="uRZREWmKz6NbIPccPwOi-41">
          <mxGeometry x="485" y="310" width="50" height="40" as="geometry" />
        </mxCell>
        <mxCell id="uRZREWmKz6NbIPccPwOi-81" value="" style="edgeStyle=orthogonalEdgeStyle;rounded=0;orthogonalLoop=1;jettySize=auto;html=1;" edge="1" parent="uRZREWmKz6NbIPccPwOi-41" source="uRZREWmKz6NbIPccPwOi-79" target="uRZREWmKz6NbIPccPwOi-80">
          <mxGeometry relative="1" as="geometry" />
        </mxCell>
        <mxCell id="uRZREWmKz6NbIPccPwOi-82" value="Retorna mensagem de dados inválidos" style="whiteSpace=wrap;html=1;fillColor=#FFFFFF;strokeColor=#ff0000;" vertex="1" parent="uRZREWmKz6NbIPccPwOi-41">
          <mxGeometry x="320" y="300" width="120" height="60" as="geometry" />
        </mxCell>
        <mxCell id="uRZREWmKz6NbIPccPwOi-84" value="Salva dados do paciente" style="whiteSpace=wrap;html=1;fillColor=#FFFFFF;strokeColor=#ff0000;" vertex="1" parent="uRZREWmKz6NbIPccPwOi-41">
          <mxGeometry x="590" y="300" width="120" height="60" as="geometry" />
        </mxCell>
        <mxCell id="uRZREWmKz6NbIPccPwOi-88" value="" style="edgeStyle=orthogonalEdgeStyle;rounded=0;orthogonalLoop=1;jettySize=auto;html=1;" edge="1" parent="uRZREWmKz6NbIPccPwOi-41" source="uRZREWmKz6NbIPccPwOi-86" target="uRZREWmKz6NbIPccPwOi-79">
          <mxGeometry relative="1" as="geometry" />
        </mxCell>
        <mxCell id="uRZREWmKz6NbIPccPwOi-86" value="" style="rhombus;whiteSpace=wrap;html=1;fillColor=#FFFFFF;strokeColor=#ff0000;" vertex="1" parent="uRZREWmKz6NbIPccPwOi-41">
          <mxGeometry x="250" y="175" width="80" height="80" as="geometry" />
        </mxCell>
        <mxCell id="uRZREWmKz6NbIPccPwOi-63" value="Cadastro encontrado" style="whiteSpace=wrap;html=1;fillColor=#FFFFFF;strokeColor=#ff0000;" vertex="1" parent="uRZREWmKz6NbIPccPwOi-41">
          <mxGeometry x="230" y="500" width="120" height="60" as="geometry" />
        </mxCell>
        <mxCell id="uRZREWmKz6NbIPccPwOi-89" value="" style="edgeStyle=orthogonalEdgeStyle;rounded=0;orthogonalLoop=1;jettySize=auto;html=1;" edge="1" parent="uRZREWmKz6NbIPccPwOi-41" source="uRZREWmKz6NbIPccPwOi-86" target="uRZREWmKz6NbIPccPwOi-63">
          <mxGeometry relative="1" as="geometry" />
        </mxCell>
        <mxCell id="uRZREWmKz6NbIPccPwOi-98" value="Retorna mensagem campos obrigatórios não preenchidos" style="whiteSpace=wrap;html=1;fillColor=#FFFFFF;strokeColor=#ff0000;" vertex="1" parent="uRZREWmKz6NbIPccPwOi-41">
          <mxGeometry x="450" y="420" width="120" height="60" as="geometry" />
        </mxCell>
        <mxCell id="uRZREWmKz6NbIPccPwOi-95" value="Gera a ficha com os dados do paciente" style="whiteSpace=wrap;html=1;fillColor=#FFFFFF;strokeColor=#ff0000;" vertex="1" parent="uRZREWmKz6NbIPccPwOi-41">
          <mxGeometry x="590" y="500" width="120" height="60" as="geometry" />
        </mxCell>
        <mxCell id="uRZREWmKz6NbIPccPwOi-96" value="" style="edgeStyle=orthogonalEdgeStyle;rounded=0;orthogonalLoop=1;jettySize=auto;html=1;" edge="1" parent="uRZREWmKz6NbIPccPwOi-41" source="uRZREWmKz6NbIPccPwOi-84" target="uRZREWmKz6NbIPccPwOi-95">
          <mxGeometry relative="1" as="geometry" />
        </mxCell>
        <mxCell id="uRZREWmKz6NbIPccPwOi-97" style="edgeStyle=orthogonalEdgeStyle;rounded=0;orthogonalLoop=1;jettySize=auto;html=1;entryX=0;entryY=0.5;entryDx=0;entryDy=0;" edge="1" parent="uRZREWmKz6NbIPccPwOi-41" source="uRZREWmKz6NbIPccPwOi-63" target="uRZREWmKz6NbIPccPwOi-95">
          <mxGeometry relative="1" as="geometry" />
        </mxCell>
        <mxCell id="uRZREWmKz6NbIPccPwOi-148" style="edgeStyle=orthogonalEdgeStyle;rounded=0;orthogonalLoop=1;jettySize=auto;html=1;exitX=1;exitY=0.5;exitDx=0;exitDy=0;" edge="1" parent="uRZREWmKz6NbIPccPwOi-40" source="uRZREWmKz6NbIPccPwOi-95" target="uRZREWmKz6NbIPccPwOi-113">
          <mxGeometry relative="1" as="geometry" />
        </mxCell>
        <mxCell id="uRZREWmKz6NbIPccPwOi-43" value="Con" style="swimlane;startSize=20;fillColor=#FFFFFF;" vertex="1" parent="uRZREWmKz6NbIPccPwOi-40">
          <mxGeometry x="740" width="1590" height="1060" as="geometry" />
        </mxCell>
        <mxCell id="uRZREWmKz6NbIPccPwOi-116" value="" style="edgeStyle=orthogonalEdgeStyle;rounded=0;orthogonalLoop=1;jettySize=auto;html=1;" edge="1" parent="uRZREWmKz6NbIPccPwOi-43" source="uRZREWmKz6NbIPccPwOi-113" target="uRZREWmKz6NbIPccPwOi-115">
          <mxGeometry relative="1" as="geometry" />
        </mxCell>
        <mxCell id="uRZREWmKz6NbIPccPwOi-113" value="Login no sistema" style="whiteSpace=wrap;html=1;fillColor=#FFFFFF;strokeColor=#ff0000;" vertex="1" parent="uRZREWmKz6NbIPccPwOi-43">
          <mxGeometry x="70" y="500" width="120" height="60" as="geometry" />
        </mxCell>
        <mxCell id="uRZREWmKz6NbIPccPwOi-118" value="" style="edgeStyle=orthogonalEdgeStyle;rounded=0;orthogonalLoop=1;jettySize=auto;html=1;" edge="1" parent="uRZREWmKz6NbIPccPwOi-43" source="uRZREWmKz6NbIPccPwOi-115" target="uRZREWmKz6NbIPccPwOi-117">
          <mxGeometry relative="1" as="geometry" />
        </mxCell>
        <mxCell id="uRZREWmKz6NbIPccPwOi-120" value="" style="edgeStyle=orthogonalEdgeStyle;rounded=0;orthogonalLoop=1;jettySize=auto;html=1;" edge="1" parent="uRZREWmKz6NbIPccPwOi-43" source="uRZREWmKz6NbIPccPwOi-115" target="uRZREWmKz6NbIPccPwOi-119">
          <mxGeometry relative="1" as="geometry" />
        </mxCell>
        <mxCell id="uRZREWmKz6NbIPccPwOi-122" value="" style="edgeStyle=orthogonalEdgeStyle;rounded=0;orthogonalLoop=1;jettySize=auto;html=1;" edge="1" parent="uRZREWmKz6NbIPccPwOi-43" source="uRZREWmKz6NbIPccPwOi-115" target="uRZREWmKz6NbIPccPwOi-121">
          <mxGeometry relative="1" as="geometry" />
        </mxCell>
        <mxCell id="uRZREWmKz6NbIPccPwOi-115" value="" style="rhombus;whiteSpace=wrap;html=1;fillColor=#FFFFFF;strokeColor=#ff0000;" vertex="1" parent="uRZREWmKz6NbIPccPwOi-43">
          <mxGeometry x="315" y="500" width="50" height="60" as="geometry" />
        </mxCell>
        <mxCell id="uRZREWmKz6NbIPccPwOi-269" value="" style="edgeStyle=orthogonalEdgeStyle;rounded=0;orthogonalLoop=1;jettySize=auto;html=1;" edge="1" parent="uRZREWmKz6NbIPccPwOi-43" source="uRZREWmKz6NbIPccPwOi-119" target="uRZREWmKz6NbIPccPwOi-268">
          <mxGeometry relative="1" as="geometry" />
        </mxCell>
        <mxCell id="uRZREWmKz6NbIPccPwOi-119" value="Retorna mensagem&amp;nbsp; de logado com sucesso" style="whiteSpace=wrap;html=1;fillColor=#FFFFFF;strokeColor=#ff0000;" vertex="1" parent="uRZREWmKz6NbIPccPwOi-43">
          <mxGeometry x="445" y="500" width="120" height="60" as="geometry" />
        </mxCell>
        <mxCell id="uRZREWmKz6NbIPccPwOi-121" value="Mensagem de erro na senha/user" style="whiteSpace=wrap;html=1;fillColor=#FFFFFF;strokeColor=#ff0000;" vertex="1" parent="uRZREWmKz6NbIPccPwOi-43">
          <mxGeometry x="280" y="340" width="120" height="60" as="geometry" />
        </mxCell>
        <mxCell id="uRZREWmKz6NbIPccPwOi-124" value="" style="edgeStyle=orthogonalEdgeStyle;rounded=0;orthogonalLoop=1;jettySize=auto;html=1;" edge="1" parent="uRZREWmKz6NbIPccPwOi-43" source="uRZREWmKz6NbIPccPwOi-117" target="uRZREWmKz6NbIPccPwOi-123">
          <mxGeometry relative="1" as="geometry" />
        </mxCell>
        <mxCell id="uRZREWmKz6NbIPccPwOi-117" value="Mensagem de usuário não encontrado/ cadastro no sistema" style="whiteSpace=wrap;html=1;fillColor=#FFFFFF;strokeColor=#ff0000;" vertex="1" parent="uRZREWmKz6NbIPccPwOi-43">
          <mxGeometry x="280" y="790" width="120" height="60" as="geometry" />
        </mxCell>
        <mxCell id="uRZREWmKz6NbIPccPwOi-126" value="" style="edgeStyle=orthogonalEdgeStyle;rounded=0;orthogonalLoop=1;jettySize=auto;html=1;" edge="1" parent="uRZREWmKz6NbIPccPwOi-43" source="uRZREWmKz6NbIPccPwOi-123" target="uRZREWmKz6NbIPccPwOi-125">
          <mxGeometry relative="1" as="geometry" />
        </mxCell>
        <mxCell id="uRZREWmKz6NbIPccPwOi-123" value="" style="rhombus;whiteSpace=wrap;html=1;fillColor=#FFFFFF;strokeColor=#ff0000;" vertex="1" parent="uRZREWmKz6NbIPccPwOi-43">
          <mxGeometry x="505" y="795" width="50" height="50" as="geometry" />
        </mxCell>
        <mxCell id="uRZREWmKz6NbIPccPwOi-125" value="Volta para tela de login" style="whiteSpace=wrap;html=1;fillColor=#FFFFFF;strokeColor=#ff0000;" vertex="1" parent="uRZREWmKz6NbIPccPwOi-43">
          <mxGeometry x="470" y="900" width="120" height="60" as="geometry" />
        </mxCell>
        <mxCell id="uRZREWmKz6NbIPccPwOi-137" value="" style="edgeStyle=orthogonalEdgeStyle;rounded=0;orthogonalLoop=1;jettySize=auto;html=1;" edge="1" parent="uRZREWmKz6NbIPccPwOi-43" source="uRZREWmKz6NbIPccPwOi-127" target="uRZREWmKz6NbIPccPwOi-136">
          <mxGeometry relative="1" as="geometry" />
        </mxCell>
        <mxCell id="uRZREWmKz6NbIPccPwOi-127" value="Inicia cadastro de funcionario" style="whiteSpace=wrap;html=1;fillColor=#FFFFFF;strokeColor=#ff0000;" vertex="1" parent="uRZREWmKz6NbIPccPwOi-43">
          <mxGeometry x="615" y="790" width="120" height="60" as="geometry" />
        </mxCell>
        <mxCell id="uRZREWmKz6NbIPccPwOi-128" value="" style="edgeStyle=orthogonalEdgeStyle;rounded=0;orthogonalLoop=1;jettySize=auto;html=1;" edge="1" parent="uRZREWmKz6NbIPccPwOi-43" source="uRZREWmKz6NbIPccPwOi-123" target="uRZREWmKz6NbIPccPwOi-127">
          <mxGeometry relative="1" as="geometry" />
        </mxCell>
        <mxCell id="uRZREWmKz6NbIPccPwOi-136" value="Informa dados de cadastro do funcionario" style="whiteSpace=wrap;html=1;fillColor=#FFFFFF;strokeColor=#ff0000;" vertex="1" parent="uRZREWmKz6NbIPccPwOi-43">
          <mxGeometry x="815" y="790" width="120" height="60" as="geometry" />
        </mxCell>
        <mxCell id="uRZREWmKz6NbIPccPwOi-140" value="Mensagem de erro " style="whiteSpace=wrap;html=1;fillColor=#FFFFFF;strokeColor=#ff0000;" vertex="1" parent="uRZREWmKz6NbIPccPwOi-43">
          <mxGeometry x="1160" y="790" width="120" height="60" as="geometry" />
        </mxCell>
        <mxCell id="uRZREWmKz6NbIPccPwOi-141" value="" style="edgeStyle=orthogonalEdgeStyle;rounded=0;orthogonalLoop=1;jettySize=auto;html=1;" edge="1" parent="uRZREWmKz6NbIPccPwOi-43" source="uRZREWmKz6NbIPccPwOi-138" target="uRZREWmKz6NbIPccPwOi-140">
          <mxGeometry relative="1" as="geometry" />
        </mxCell>
        <mxCell id="uRZREWmKz6NbIPccPwOi-138" value="" style="rhombus;whiteSpace=wrap;html=1;fillColor=#FFFFFF;strokeColor=#ff0000;" vertex="1" parent="uRZREWmKz6NbIPccPwOi-43">
          <mxGeometry x="995" y="780" width="80" height="80" as="geometry" />
        </mxCell>
        <mxCell id="uRZREWmKz6NbIPccPwOi-139" value="" style="edgeStyle=orthogonalEdgeStyle;rounded=0;orthogonalLoop=1;jettySize=auto;html=1;" edge="1" parent="uRZREWmKz6NbIPccPwOi-43" source="uRZREWmKz6NbIPccPwOi-136" target="uRZREWmKz6NbIPccPwOi-138">
          <mxGeometry relative="1" as="geometry" />
        </mxCell>
        <mxCell id="uRZREWmKz6NbIPccPwOi-144" value="" style="whiteSpace=wrap;html=1;fillColor=#FFFFFF;strokeColor=#ff0000;" vertex="1" parent="uRZREWmKz6NbIPccPwOi-43">
          <mxGeometry x="975" y="930" width="120" height="60" as="geometry" />
        </mxCell>
        <mxCell id="uRZREWmKz6NbIPccPwOi-145" value="" style="edgeStyle=orthogonalEdgeStyle;rounded=0;orthogonalLoop=1;jettySize=auto;html=1;" edge="1" parent="uRZREWmKz6NbIPccPwOi-43" source="uRZREWmKz6NbIPccPwOi-138" target="uRZREWmKz6NbIPccPwOi-144">
          <mxGeometry relative="1" as="geometry" />
        </mxCell>
        <mxCell id="uRZREWmKz6NbIPccPwOi-142" value="Cadastro realizado com sucesso" style="whiteSpace=wrap;html=1;fillColor=#FFFFFF;strokeColor=#ff0000;" vertex="1" parent="uRZREWmKz6NbIPccPwOi-43">
          <mxGeometry x="975" y="640" width="120" height="60" as="geometry" />
        </mxCell>
        <mxCell id="uRZREWmKz6NbIPccPwOi-143" value="" style="edgeStyle=orthogonalEdgeStyle;rounded=0;orthogonalLoop=1;jettySize=auto;html=1;" edge="1" parent="uRZREWmKz6NbIPccPwOi-43" source="uRZREWmKz6NbIPccPwOi-138" target="uRZREWmKz6NbIPccPwOi-142">
          <mxGeometry relative="1" as="geometry" />
        </mxCell>
        <mxCell id="uRZREWmKz6NbIPccPwOi-288" value="" style="edgeStyle=orthogonalEdgeStyle;rounded=0;orthogonalLoop=1;jettySize=auto;html=1;" edge="1" parent="uRZREWmKz6NbIPccPwOi-43" source="uRZREWmKz6NbIPccPwOi-268" target="uRZREWmKz6NbIPccPwOi-287">
          <mxGeometry relative="1" as="geometry" />
        </mxCell>
        <mxCell id="uRZREWmKz6NbIPccPwOi-291" value="" style="edgeStyle=orthogonalEdgeStyle;rounded=0;orthogonalLoop=1;jettySize=auto;html=1;" edge="1" parent="uRZREWmKz6NbIPccPwOi-43" source="uRZREWmKz6NbIPccPwOi-268" target="uRZREWmKz6NbIPccPwOi-290">
          <mxGeometry relative="1" as="geometry" />
        </mxCell>
        <mxCell id="uRZREWmKz6NbIPccPwOi-268" value="Tela incial do sistema" style="whiteSpace=wrap;html=1;fillColor=#FFFFFF;strokeColor=#ff0000;" vertex="1" parent="uRZREWmKz6NbIPccPwOi-43">
          <mxGeometry x="645" y="500" width="120" height="60" as="geometry" />
        </mxCell>
        <mxCell id="uRZREWmKz6NbIPccPwOi-287" value="Entra na opção de gerador de relatorios" style="whiteSpace=wrap;html=1;fillColor=#FFFFFF;strokeColor=#ff0000;" vertex="1" parent="uRZREWmKz6NbIPccPwOi-43">
          <mxGeometry x="845" y="500" width="120" height="60" as="geometry" />
        </mxCell>
        <mxCell id="uRZREWmKz6NbIPccPwOi-290" value="Entra na opção de cadastro de consultas" style="whiteSpace=wrap;html=1;fillColor=#FFFFFF;strokeColor=#ff0000;" vertex="1" parent="uRZREWmKz6NbIPccPwOi-43">
          <mxGeometry x="645" y="280" width="120" height="60" as="geometry" />
        </mxCell>
        <mxCell id="uRZREWmKz6NbIPccPwOi-166" value="" style="edgeStyle=orthogonalEdgeStyle;rounded=0;orthogonalLoop=1;jettySize=auto;html=1;" edge="1" parent="1" source="uRZREWmKz6NbIPccPwOi-151" target="uRZREWmKz6NbIPccPwOi-165">
          <mxGeometry relative="1" as="geometry" />
        </mxCell>
        <mxCell id="uRZREWmKz6NbIPccPwOi-151" value="Verifica permissão para agendar consultas" style="whiteSpace=wrap;html=1;fillColor=#FFFFFF;strokeColor=#ff0000;" vertex="1" parent="1">
          <mxGeometry x="2320" y="62.50999999999999" width="110" height="45" as="geometry" />
        </mxCell>
        <mxCell id="uRZREWmKz6NbIPccPwOi-165" value="" style="rhombus;whiteSpace=wrap;html=1;fillColor=#FFFFFF;strokeColor=#ff0000;" vertex="1" parent="1">
          <mxGeometry x="2510" y="64.38999999999999" width="40" height="41.25" as="geometry" />
        </mxCell>
        <mxCell id="uRZREWmKz6NbIPccPwOi-171" value="Retorna mensagem informando que usuário não possui permissão" style="whiteSpace=wrap;html=1;fillColor=#FFFFFF;strokeColor=#ff0000;" vertex="1" parent="1">
          <mxGeometry x="2470" y="-50.004999999999995" width="120" height="60" as="geometry" />
        </mxCell>
        <mxCell id="uRZREWmKz6NbIPccPwOi-172" value="" style="edgeStyle=orthogonalEdgeStyle;rounded=0;orthogonalLoop=1;jettySize=auto;html=1;" edge="1" parent="1" source="uRZREWmKz6NbIPccPwOi-165" target="uRZREWmKz6NbIPccPwOi-171">
          <mxGeometry relative="1" as="geometry" />
        </mxCell>
        <mxCell id="uRZREWmKz6NbIPccPwOi-177" value="" style="edgeStyle=orthogonalEdgeStyle;rounded=0;orthogonalLoop=1;jettySize=auto;html=1;" edge="1" parent="1" source="uRZREWmKz6NbIPccPwOi-167" target="uRZREWmKz6NbIPccPwOi-176">
          <mxGeometry relative="1" as="geometry" />
        </mxCell>
        <mxCell id="uRZREWmKz6NbIPccPwOi-167" value="Entra na página para agendamento de consultas" style="whiteSpace=wrap;html=1;fillColor=#FFFFFF;strokeColor=#ff0000;" vertex="1" parent="1">
          <mxGeometry x="2625" y="55.014999999999986" width="120" height="60" as="geometry" />
        </mxCell>
        <mxCell id="uRZREWmKz6NbIPccPwOi-175" value="" style="edgeStyle=orthogonalEdgeStyle;rounded=0;orthogonalLoop=1;jettySize=auto;html=1;endArrow=none;" edge="1" parent="1" source="uRZREWmKz6NbIPccPwOi-165" target="uRZREWmKz6NbIPccPwOi-167">
          <mxGeometry relative="1" as="geometry">
            <mxPoint x="3229.917575757576" y="-144.9000000000001" as="sourcePoint" />
            <mxPoint x="3500" y="-107.4949999999999" as="targetPoint" />
          </mxGeometry>
        </mxCell>
        <mxCell id="uRZREWmKz6NbIPccPwOi-179" value="" style="edgeStyle=orthogonalEdgeStyle;rounded=0;orthogonalLoop=1;jettySize=auto;html=1;" edge="1" parent="1" source="uRZREWmKz6NbIPccPwOi-176" target="uRZREWmKz6NbIPccPwOi-178">
          <mxGeometry relative="1" as="geometry" />
        </mxCell>
        <mxCell id="uRZREWmKz6NbIPccPwOi-181" value="" style="edgeStyle=orthogonalEdgeStyle;rounded=0;orthogonalLoop=1;jettySize=auto;html=1;" edge="1" parent="1" source="uRZREWmKz6NbIPccPwOi-176" target="uRZREWmKz6NbIPccPwOi-180">
          <mxGeometry relative="1" as="geometry" />
        </mxCell>
        <mxCell id="uRZREWmKz6NbIPccPwOi-176" value="" style="rhombus;whiteSpace=wrap;html=1;fillColor=#FFFFFF;strokeColor=#ff0000;" vertex="1" parent="1">
          <mxGeometry x="2850" y="57.51999999999998" width="55" height="54.99" as="geometry" />
        </mxCell>
        <mxCell id="uRZREWmKz6NbIPccPwOi-178" value="Consulta agendada" style="whiteSpace=wrap;html=1;fillColor=#FFFFFF;strokeColor=#ff0000;" vertex="1" parent="1">
          <mxGeometry x="2952.5" y="55.014999999999986" width="120" height="60" as="geometry" />
        </mxCell>
        <mxCell id="uRZREWmKz6NbIPccPwOi-180" value="Volta para a tela inicial do sistema" style="whiteSpace=wrap;html=1;fillColor=#FFFFFF;strokeColor=#ff0000;" vertex="1" parent="1">
          <mxGeometry x="2817.5" y="-40.004999999999995" width="120" height="60" as="geometry" />
        </mxCell>
        <mxCell id="uRZREWmKz6NbIPccPwOi-278" value="" style="rhombus;whiteSpace=wrap;html=1;fillColor=#FFFFFF;strokeColor=#ff0000;" vertex="1" parent="1">
          <mxGeometry x="2530" y="370" width="40" height="40" as="geometry" />
        </mxCell>
        <mxCell id="uRZREWmKz6NbIPccPwOi-280" value="Entra na pagina para gerar relatorios" style="whiteSpace=wrap;html=1;fillColor=#FFFFFF;strokeColor=#ff0000;" vertex="1" parent="1">
          <mxGeometry x="2610" y="360" width="120" height="60" as="geometry" />
        </mxCell>
        <mxCell id="uRZREWmKz6NbIPccPwOi-276" value="" style="edgeStyle=orthogonalEdgeStyle;rounded=0;orthogonalLoop=1;jettySize=auto;html=1;" edge="1" parent="1" source="uRZREWmKz6NbIPccPwOi-278" target="uRZREWmKz6NbIPccPwOi-280">
          <mxGeometry relative="1" as="geometry" />
        </mxCell>
        <mxCell id="uRZREWmKz6NbIPccPwOi-281" value="Retorna mensagem informando que usuario não possui permissão" style="whiteSpace=wrap;html=1;fillColor=#FFFFFF;strokeColor=#ff0000;" vertex="1" parent="1">
          <mxGeometry x="2490" y="240" width="120" height="60" as="geometry" />
        </mxCell>
        <mxCell id="uRZREWmKz6NbIPccPwOi-277" value="" style="edgeStyle=orthogonalEdgeStyle;rounded=0;orthogonalLoop=1;jettySize=auto;html=1;" edge="1" parent="1" source="uRZREWmKz6NbIPccPwOi-278" target="uRZREWmKz6NbIPccPwOi-281">
          <mxGeometry relative="1" as="geometry" />
        </mxCell>
        <mxCell id="uRZREWmKz6NbIPccPwOi-284" value="" style="rhombus;whiteSpace=wrap;html=1;fillColor=#FFFFFF;strokeColor=#ff0000;" vertex="1" parent="1">
          <mxGeometry x="2807.5" y="365" width="45" height="50" as="geometry" />
        </mxCell>
        <mxCell id="uRZREWmKz6NbIPccPwOi-279" value="" style="edgeStyle=orthogonalEdgeStyle;rounded=0;orthogonalLoop=1;jettySize=auto;html=1;" edge="1" parent="1" source="uRZREWmKz6NbIPccPwOi-280" target="uRZREWmKz6NbIPccPwOi-284">
          <mxGeometry relative="1" as="geometry" />
        </mxCell>
        <mxCell id="uRZREWmKz6NbIPccPwOi-285" value="Relatorio gerado com sucesso" style="whiteSpace=wrap;html=1;fillColor=#FFFFFF;strokeColor=#ff0000;" vertex="1" parent="1">
          <mxGeometry x="2900" y="360" width="120" height="60" as="geometry" />
        </mxCell>
        <mxCell id="uRZREWmKz6NbIPccPwOi-282" value="" style="edgeStyle=orthogonalEdgeStyle;rounded=0;orthogonalLoop=1;jettySize=auto;html=1;" edge="1" parent="1" source="uRZREWmKz6NbIPccPwOi-284" target="uRZREWmKz6NbIPccPwOi-285">
          <mxGeometry relative="1" as="geometry" />
        </mxCell>
        <mxCell id="uRZREWmKz6NbIPccPwOi-286" value="Volta para tela inicial do sistema" style="whiteSpace=wrap;html=1;fillColor=#FFFFFF;strokeColor=#ff0000;" vertex="1" parent="1">
          <mxGeometry x="2770" y="210" width="120" height="60" as="geometry" />
        </mxCell>
        <mxCell id="uRZREWmKz6NbIPccPwOi-283" value="" style="edgeStyle=orthogonalEdgeStyle;rounded=0;orthogonalLoop=1;jettySize=auto;html=1;" edge="1" parent="1" source="uRZREWmKz6NbIPccPwOi-284" target="uRZREWmKz6NbIPccPwOi-286">
          <mxGeometry relative="1" as="geometry" />
        </mxCell>
        <mxCell id="uRZREWmKz6NbIPccPwOi-271" value="Verifica permissão para gerar relatorios de pacientes" style="whiteSpace=wrap;html=1;fillColor=#FFFFFF;strokeColor=#ff0000;" vertex="1" parent="1">
          <mxGeometry x="2300" y="360" width="120" height="60" as="geometry" />
        </mxCell>
        <mxCell id="uRZREWmKz6NbIPccPwOi-270" value="" style="edgeStyle=orthogonalEdgeStyle;rounded=0;orthogonalLoop=1;jettySize=auto;html=1;" edge="1" parent="1" source="uRZREWmKz6NbIPccPwOi-271" target="uRZREWmKz6NbIPccPwOi-278">
          <mxGeometry relative="1" as="geometry" />
        </mxCell>
      </root>
    </mxGraphModel>
  </diagram>
</mxfile>
